# xmcd
#
# Track frame offsets:
#	182
#	17757
#	37957
#	45807
#
# Disc length: 781 seconds
# Revision: 2
# Processed by: cddbd v1.5.2PL0 Copyright (c) Steve Scherf et al.
# Submitted via: dBpowerAMP V12.0
#
DISCID=1f030b04
DTITLE=Jools Holland - Count to Ten
DYEAR=1996
DGENRE=Rhythm and Blues
TTITLE0=Count To Ten
TTITLE1=Take Good Care
TTITLE2=Rotten Row Boogie
TTITLE3=Lighten Up
EXTD=
EXTT0=
EXTT1=
EXTT2=
EXTT3=
PLAYORDER=
